<svg xmlns="http://www.w3.org/2000/svg" viewBox="0 0 64 64" fill="none">
  <!-- Building silhouette representing Madona Heights -->
  <rect x="8" y="20" width="48" height="40" fill="#2563eb" rx="2"/>
  <!-- Windows grid -->
  <rect x="14" y="28" width="6" height="6" fill="#fbbf24" rx="1"/>
  <rect x="24" y="28" width="6" height="6" fill="#fbbf24" rx="1"/>
  <rect x="34" y="28" width="6" height="6" fill="#fbbf24" rx="1"/>
  <rect x="44" y="28" width="6" height="6" fill="#fbbf24" rx="1"/>
  <rect x="14" y="38" width="6" height="6" fill="#fbbf24" rx="1"/>
  <rect x="24" y="38" width="6" height="6" fill="#fbbf24" rx="1"/>
  <rect x="34" y="38" width="6" height="6" fill="#fbbf24" rx="1"/>
  <rect x="44" y="38" width="6" height="6" fill="#fbbf24" rx="1"/>
  <rect x="14" y="48" width="6" height="6" fill="#fbbf24" rx="1"/>
  <rect x="24" y="48" width="6" height="6" fill="#fbbf24" rx="1"/>
  <rect x="34" y="48" width="6" height="6" fill="#fbbf24" rx="1"/>
  <rect x="44" y="48" width="6" height="6" fill="#fbbf24" rx="1"/>
  <!-- Door -->
  <rect x="28" y="50" width="8" height="10" fill="#1e40af" rx="1"/>
  <!-- Roof accent -->
  <path d="M 8 20 L 32 8 L 56 20 Z" fill="#1e40af"/>
</svg>

